<svg width="20" height="20" viewBox="0 0 20 20" fill="none" xmlns="http://www.w3.org/2000/svg">
<path d="M18.7786 20C19.1048 20 19.3767 19.8913 19.5942 19.6738C19.8117 19.4563 19.9204 19.1844 19.9204 18.8582V14.454C19.9204 14.2002 19.8389 13.978 19.6757 13.7874C19.5126 13.5967 19.3042 13.4745 19.0504 13.4209L15.2987 12.6597C15.045 12.6234 14.7865 12.6463 14.5234 12.7282C14.2602 12.8101 14.0474 12.9323 13.885 13.0947L11.3295 15.6502C9.95206 14.8165 8.69242 13.8287 7.55059 12.6869C6.40876 11.545 5.45724 10.3216 4.69602 9.01669L7.30591 6.35242C7.46903 6.1893 7.57343 6.00335 7.6191 5.79455C7.66477 5.58576 7.66912 5.35486 7.63215 5.10184L6.9253 1.29575C6.88906 1.04201 6.77125 0.833577 6.57188 0.670459C6.37251 0.50734 6.14596 0.425781 5.89222 0.425781H1.48802C1.16178 0.425781 0.889919 0.534527 0.672428 0.752018C0.454936 0.969509 0.346192 1.24137 0.346192 1.56761C0.346192 3.90564 0.867446 6.18495 1.90995 8.40554C2.95246 10.6261 4.32991 12.5926 6.04229 14.305C7.75467 16.0174 9.72115 17.3948 11.9417 18.4373C14.1623 19.4798 16.4413 20.0007 18.7786 20Z" fill="#FFFBDA"/>
</svg>
