<svg width="21" height="24" viewBox="0 0 21 24" fill="none" xmlns="http://www.w3.org/2000/svg">
<path d="M3.86697 1.96601C3.68935 2.08153 3.56319 2.26183 3.51503 2.46899C3.46686 2.67615 3.50044 2.89402 3.60871 3.07678C3.71697 3.25955 3.89149 3.39297 4.09555 3.44898C4.2996 3.50499 4.51731 3.47923 4.70287 3.37711L4.71022 3.373L4.75925 3.34588C4.80909 3.3204 4.88999 3.28013 5.00438 3.22918C5.23317 3.12809 5.59515 2.98674 6.0944 2.84291C7.09372 2.55773 8.65194 2.25941 10.8238 2.25941C12.9957 2.25941 14.5539 2.55691 15.5532 2.84456C16.0533 2.98756 16.4144 3.12891 16.6432 3.23082C16.7431 3.27468 16.8412 3.32239 16.9374 3.37382L16.9456 3.37793C17.1314 3.48374 17.3511 3.51214 17.5576 3.45705C17.764 3.40196 17.9408 3.26775 18.0501 3.08317C18.1594 2.89859 18.1924 2.67831 18.1422 2.4695C18.092 2.2607 17.9625 2.07996 17.7815 1.96601L17.7798 1.96436H17.7782L17.7741 1.9619L17.7643 1.95532C17.7234 1.93187 17.682 1.9094 17.6401 1.88793C17.5286 1.83006 17.4152 1.77579 17.3002 1.72521C16.878 1.54256 16.4443 1.38827 16.0018 1.26333C14.8562 0.934597 13.146 0.615723 10.8238 0.615723C8.50159 0.615723 6.79139 0.934597 5.64581 1.26333C5.07383 1.4277 4.6424 1.59536 4.34824 1.72521C4.18997 1.79499 4.03485 1.87177 3.88331 1.95532L3.87351 1.9619L3.86942 1.96354L3.86779 1.96436L3.86697 1.96601ZM0.609985 8.0123C0.609985 7.24942 0.911292 6.51778 1.44762 5.97834C1.98395 5.4389 2.71137 5.13585 3.46986 5.13585H11.6409C12.3994 5.13585 13.1268 5.4389 13.6631 5.97834C14.1995 6.51778 14.5008 7.24942 14.5008 8.0123V16.2307C14.5008 16.9936 14.1995 17.7252 13.6631 18.2647C13.1268 18.8041 12.3994 19.1072 11.6409 19.1072H3.46986C2.71137 19.1072 1.98395 18.8041 1.44762 18.2647C0.911292 17.7252 0.609985 16.9936 0.609985 16.2307V8.0123ZM15.7264 14.2361L18.972 16.8307C19.642 17.3657 20.6291 16.8865 20.6291 16.0269V8.21611C20.6291 7.35647 19.6412 6.87651 18.972 7.41235L15.7264 10.0077V14.2361ZM3.5867 21.1494C3.53137 21.242 3.49472 21.3447 3.47886 21.4515C3.46299 21.5583 3.46823 21.6673 3.49426 21.7721C3.52029 21.8769 3.5666 21.9755 3.63056 22.0623C3.69451 22.149 3.77485 22.2223 3.86697 22.2778L3.86942 22.2795L3.87351 22.2819L3.88331 22.2869C3.92388 22.3111 3.96531 22.3338 4.00751 22.3551C4.08759 22.397 4.20035 22.4529 4.34824 22.5178C4.6424 22.6476 5.07302 22.8145 5.64581 22.9797C6.79139 23.3084 8.50159 23.6273 10.8238 23.6273C13.146 23.6273 14.8562 23.3084 16.0018 22.9797C16.5746 22.8153 17.0052 22.6476 17.3002 22.5178C17.4482 22.4527 17.5935 22.3814 17.7357 22.3041L17.7643 22.2877L17.7741 22.2811L17.7782 22.2795L17.7798 22.2778H17.7815C17.9677 22.1662 18.1023 21.9848 18.1555 21.7734C18.2088 21.562 18.1764 21.338 18.0654 21.1507C17.9545 20.9633 17.774 20.828 17.5639 20.7744C17.3537 20.7209 17.131 20.7535 16.9447 20.8651L16.9382 20.8692C16.8418 20.9209 16.7434 20.9689 16.6432 21.013C16.4144 21.1141 16.0533 21.2555 15.5532 21.3993C14.5539 21.6861 12.9957 21.9836 10.8238 21.9836C8.65194 21.9836 7.09372 21.6861 6.0944 21.3985C5.72315 21.2944 5.35926 21.1653 5.0052 21.0122C4.90508 20.9683 4.80668 20.9206 4.71022 20.8692L4.70287 20.8651C4.51717 20.7547 4.29562 20.7227 4.08653 20.7759C3.87744 20.8292 3.69777 20.9635 3.5867 21.1494Z" fill="#1E1E1E"/>
</svg>
