<svg width="37" height="12" viewBox="0 0 37 12" fill="none" xmlns="http://www.w3.org/2000/svg">
<path d="M6.46636 3.10668V3.31547H8.19635V4.5384H6.37688C6.26751 5.20454 6.05872 5.73646 5.75051 6.13416C5.45223 6.52192 5.02471 6.80528 4.46793 6.98424C3.91115 7.15326 3.19032 7.23778 2.30544 7.23778V8.17734C2.30544 8.72417 2.41978 9.15667 2.64846 9.47483C2.88708 9.79299 3.28478 9.95207 3.84155 9.95207C4.85568 9.95207 5.36275 9.38038 5.36275 8.23699H6.92869C6.91875 9.24118 6.64533 10.0018 6.10844 10.5188C5.58148 11.0259 4.81592 11.2794 3.81173 11.2794C2.80754 11.2794 2.037 11.001 1.5001 10.4442C0.973154 9.88744 0.709679 9.10696 0.709679 8.10277V6.05959C1.81329 6.05959 2.6236 6.02977 3.14061 5.97011C3.65762 5.90051 4.0404 5.76132 4.28896 5.55253C4.54747 5.34374 4.71649 5.00569 4.79603 4.5384H0.0833038V3.31547H4.8706V3.10668V1.98816H0.0833038V0.75032H8.19635V1.98816H6.46636V3.10668ZM16.5789 1.71971H11.5828V4.68753C11.7916 4.40915 12.0998 4.1755 12.5075 3.98659C12.925 3.79768 13.3675 3.70323 13.8348 3.70323C14.6699 3.70323 15.346 3.8822 15.863 4.24012C16.39 4.59805 16.7628 5.05043 16.9816 5.59727C17.2102 6.1441 17.3246 6.72077 17.3246 7.32726C17.3246 8.063 17.1804 8.7192 16.8921 9.29587C16.6137 9.86259 16.1911 10.31 15.6244 10.6381C15.0676 10.9662 14.3816 11.1302 13.5663 11.1302C12.4826 11.1302 11.6126 10.8618 10.9564 10.3249C10.3002 9.78802 9.9075 9.07713 9.77825 8.19225H11.4337C11.543 8.65955 11.7866 9.03239 12.1644 9.31078C12.5423 9.57923 13.0145 9.71345 13.5812 9.71345C14.2872 9.71345 14.8141 9.49969 15.1621 9.07216C15.52 8.64463 15.699 8.07791 15.699 7.372C15.699 6.65614 15.52 6.10931 15.1621 5.73149C14.8042 5.34374 14.2772 5.14986 13.5812 5.14986C13.0941 5.14986 12.6814 5.27414 12.3434 5.5227C12.0153 5.76132 11.7767 6.08942 11.6275 6.507H10.0169V0.228341H16.5789V1.71971ZM19.0944 5.55253C19.0944 3.83248 19.3827 2.49025 19.9594 1.52583C20.546 0.55147 21.5502 0.06429 22.972 0.06429C24.3937 0.06429 25.393 0.55147 25.9696 1.52583C26.5562 2.49025 26.8495 3.83248 26.8495 5.55253C26.8495 7.29246 26.5562 8.65458 25.9696 9.63888C25.393 10.6132 24.3937 11.1004 22.972 11.1004C21.5502 11.1004 20.546 10.6132 19.9594 9.63888C19.3827 8.65458 19.0944 7.29246 19.0944 5.55253ZM25.1792 5.55253C25.1792 4.74719 25.1245 4.06613 25.0151 3.50935C24.9157 2.95257 24.7069 2.50019 24.3888 2.15221C24.0706 1.79428 23.5983 1.61531 22.972 1.61531C22.3456 1.61531 21.8733 1.79428 21.5552 2.15221C21.237 2.50019 21.0233 2.95257 20.9139 3.50935C20.8145 4.06613 20.7647 4.74719 20.7647 5.55253C20.7647 6.3877 20.8145 7.08864 20.9139 7.65536C21.0133 8.22208 21.2221 8.67943 21.5403 9.02742C21.8684 9.3754 22.3456 9.5494 22.972 9.5494C23.5983 9.5494 24.0706 9.3754 24.3888 9.02742C24.7169 8.67943 24.9306 8.22208 25.0301 7.65536C25.1295 7.08864 25.1792 6.3877 25.1792 5.55253ZM28.6485 5.55253C28.6485 3.83248 28.9368 2.49025 29.5135 1.52583C30.1001 0.55147 31.1043 0.06429 32.5261 0.06429C33.9478 0.06429 34.947 0.55147 35.5237 1.52583C36.1103 2.49025 36.4036 3.83248 36.4036 5.55253C36.4036 7.29246 36.1103 8.65458 35.5237 9.63888C34.947 10.6132 33.9478 11.1004 32.5261 11.1004C31.1043 11.1004 30.1001 10.6132 29.5135 9.63888C28.9368 8.65458 28.6485 7.29246 28.6485 5.55253ZM34.7333 5.55253C34.7333 4.74719 34.6786 4.06613 34.5692 3.50935C34.4698 2.95257 34.261 2.50019 33.9429 2.15221C33.6247 1.79428 33.1524 1.61531 32.5261 1.61531C31.8997 1.61531 31.4274 1.79428 31.1093 2.15221C30.7911 2.50019 30.5773 2.95257 30.468 3.50935C30.3685 4.06613 30.3188 4.74719 30.3188 5.55253C30.3188 6.3877 30.3685 7.08864 30.468 7.65536C30.5674 8.22208 30.7762 8.67943 31.0943 9.02742C31.4224 9.3754 31.8997 9.5494 32.5261 9.5494C33.1524 9.5494 33.6247 9.3754 33.9429 9.02742C34.271 8.67943 34.4847 8.22208 34.5841 7.65536C34.6836 7.08864 34.7333 6.3877 34.7333 5.55253Z" fill="#1E1E1E"/>
</svg>
